<?xml version="1.0" encoding="utf-8"?>
<!-- Generator: Adobe Illustrator 22.1.0, SVG Export Plug-In . SVG Version: 6.00 Build 0)  -->
<svg version="1.1" id="レイヤー_1" xmlns="http://www.w3.org/2000/svg" xmlns:xlink="http://www.w3.org/1999/xlink" x="0px"
	 y="0px" viewBox="0 0 346 62" style="enable-background:new 0 0 346 62;" xml:space="preserve">
<style type="text/css">
	.st0{fill:#FF6400;}
</style>
<g>
	<g>
		<g>
			<g>
				<path class="st0" d="M86.2,6.5c3,0,5.4,1.7,5.4,4.5c0,3-2.9,4.4-4.8,4.4c-0.6,0-1-0.4-1-1c0-0.8,0.6-0.9,1-1
					c2.1-0.3,2.7-1.5,2.7-2.5c0-0.9-0.5-2-1.7-2.4c-0.2,1.1-0.9,2.9-2.6,4.5c0.1,0.5,0.1,0.5,0.1,0.6c0,0.5-0.4,0.9-0.9,0.9
					c-0.3,0-0.6-0.1-0.8-0.4c-0.8,0.4-1.4,0.6-2,0.6c-1.8,0-2.7-1.4-2.7-3c0-1.7,1.2-4,4-4.7c0-1,0-1.1,0-1.2
					c-0.5,0-2.3,0.1-2.6-0.1c-0.1,0-0.5-0.3-0.5-0.9c0-0.4,0.3-0.8,0.8-0.9c0.2,0,2,0,2.5,0c0.1-1,0.1-1.7,1-1.7
					c0.5,0,1.1,0.2,1.1,1c0,0-0.1,0.6-0.1,0.7c0.7,0,3.7-0.2,4.3-0.2c0.5,0,0.9,0.2,0.9,0.9c0,0.6-0.4,0.8-0.5,0.9
					c-0.4,0.1-4.4,0.3-5,0.3c0,0.3,0,0.6,0,0.8C85.2,6.6,85.6,6.5,86.2,6.5z M81,11.7c0,0.9,0.6,1.1,1,1.1c0.5,0,1.1-0.3,1.4-0.5
					c-0.1-0.6-0.2-1.8-0.3-3.4C82.4,9.3,81,10.1,81,11.7z M85,10.9c0.9-1.1,1.1-2,1.2-2.5c-0.1,0-0.2,0-0.5,0c-0.1,0-0.4,0-0.8,0
					C84.9,9.6,84.9,10.3,85,10.9z"/>
				<path class="st0" d="M95.9,3c0.1-0.3,0.4-0.5,0.8-0.5c0.5,0,1,0.3,1,1c0,0.2,0,0.6-0.1,1.1c0.2,0,1.4-0.1,1.5-0.1
					c0.7,0,1,0.5,1,1c0,0.4-0.2,0.8-0.7,0.9c-0.3,0.1-1.8,0.2-2.2,0.2c-0.8,3-1.9,4.7-2.3,5.3c-0.4,0.6-0.7,0.6-1,0.6
					c-0.8,0-1-0.6-1-1c0-0.3,0.1-0.5,1.1-1.9c0.9-1.4,1.2-2.4,1.3-3c-1.1,0-1.2,0-1.4,0c-0.4-0.1-0.7-0.4-0.7-0.9
					c0-0.6,0.4-0.9,0.6-0.9c0.2-0.1,1.5,0,1.9,0C95.7,4.1,95.9,3.2,95.9,3z M100.7,8.9c0-0.8-0.1-1.6,1-1.6c0.9,0,1,0.8,1,1.5
					l0.1,2.2c2.5,1,2.6,1.5,2.6,2c0,0.6-0.4,1.1-1,1.1c-0.3,0-0.5-0.1-0.7-0.3c-0.6-0.4-0.7-0.5-1.1-0.7c0,1.2-0.8,2.3-3.1,2.3
					c-2.4,0-3.1-1.6-3.1-2.6c0-1.2,1-2.5,3.1-2.5c0.5,0,0.9,0,1.3,0.2L100.7,8.9z M99.5,12c-1,0-1.1,0.5-1.1,0.7
					c0,0.4,0.4,0.9,1.2,0.9c0.6,0,1.3-0.2,1.2-1.3C100.6,12.1,100.2,12,99.5,12z M105.1,7.9c-0.3,0-0.4-0.1-1.2-0.7
					c-0.6-0.4-1.4-1-2.1-1.4c-0.3-0.2-0.7-0.4-0.7-0.9c0-0.4,0.3-1,1-1c0.8,0,2.8,1.7,3,1.9c0.9,0.8,0.9,0.9,0.9,1.3
					C106.1,7.3,105.8,7.9,105.1,7.9z"/>
				<path class="st0" d="M109.9,2.7c0.1-0.2,0.3-0.6,0.9-0.6c0.9,0,0.9,0.9,0.9,1.2c0,0.3,0,0.7-0.1,1.1c0.2,0,1-0.1,1.2-0.1
					c0.5,0,0.9,0.4,0.9,0.9c0,0.9-0.8,1-2.3,1.1c-0.5,3.7-1.9,7.2-2.2,7.7c-0.3,0.5-0.6,0.5-0.9,0.5c-0.5,0-1.1-0.2-1.1-1
					c0-0.2,0.1-0.4,0.5-1.4c1.1-2.7,1.4-4.1,1.7-5.8c-0.3,0-0.7,0-1,0c-0.5,0-1.4,0-1.4-1c0-0.4,0.3-1,1-1c0.6,0,1,0,1.5,0
					C109.8,4.3,109.8,3,109.9,2.7z M114,11.3c0.1,1.2,0.3,1.5,3.2,1.5c0.8,0,1.1-0.1,1.5-0.1c0.1,0,0.1,0,0.2,0c0.5,0,0.9,0.5,0.9,1
					c0,1-1,1.1-2.6,1.1c-2.4,0-3.3-0.4-3.8-0.8c-1.2-0.8-1.2-2.4-1.2-2.6c0-1.1,0.9-1.1,0.9-1.1C113.4,10.4,113.9,10.4,114,11.3z
					 M118.7,7.4c-0.1,0-1.9-0.1-2.3-0.1c-0.2,0-1.2,0-1.5,0c-0.7,0-1-0.5-1-0.9c0-1,1-1,2.2-1c0.5,0,2.6,0,3,0.3
					c0.2,0.1,0.5,0.4,0.4,0.9C119.6,6.8,119.5,7.4,118.7,7.4z"/>
				<path class="st0" d="M126.4,12.3c-0.3,0.5-1.1,1.3-2.2,1.3c-1.9,0-3.1-2-3.1-4.1c0-3.6,3-6.1,6.5-6.1c2.9,0,5.9,1.7,5.9,5.5
					c0,4.7-4.3,5.6-5.5,5.6c-1,0-1-0.9-1-1c0-0.7,0.4-0.8,1.4-1c1.3-0.2,1.8-0.7,2-0.8c0.8-0.7,1.3-1.8,1.3-2.8
					c0-1.8-1.3-3.6-3.6-3.8C128.2,9,127.2,11.1,126.4,12.3z M122.9,9.4c0,1.4,0.7,2.2,1.3,2.2c0.7,0,1.1-1.3,1.3-1.7
					c0.2-0.5,0.8-2.2,0.7-4.6C123.6,5.9,122.9,8.1,122.9,9.4z"/>
			</g>
			<g>
				<path class="st0" d="M138.4,14.3c0,0.6,0,1.2-0.9,1.2c-0.8,0-0.8-0.4-0.8-1.2V8.6c-0.2,0.2-0.3,0.5-0.7,0.5
					c-0.4,0-0.9-0.4-0.9-0.8c0-0.3,0.1-0.4,0.8-1.6c0.8-1.3,1.2-2.7,1.6-4.2c0.1-0.3,0.3-0.6,0.8-0.6c0.3,0,1,0.2,1,0.8
					c0,0.6-0.5,1.9-0.6,2.5V14.3z M143,7.5h-2c-0.4,0-1.3,0-1.3-1.3V3.6c0-1.3,0.9-1.3,1.3-1.3h5.9c0.4,0,1.3,0,1.3,1.3v2.6
					c0,1.3-0.9,1.3-1.3,1.3h-2.1v1.2h3c0.6,0,1.2,0,1.2,0.8c0,0.9-0.5,0.9-1.2,0.9h-1.6c0.4,0.7,0.9,1.4,2.3,2.5
					c0.2,0.2,0.4,0.5,0.4,0.7c0,0.4-0.4,0.9-0.9,0.9c-0.7,0-2.5-1.8-3.2-3v2.9c0,0.7,0,1.2-0.8,1.2c-1,0-1-0.4-1-1.2v-3
					c-0.9,1.4-2.6,3.2-3.4,3.2c-0.3,0-0.8-0.3-0.8-0.9c0-0.4,0.3-0.7,0.7-0.9c1.4-1.1,2-2,2.3-2.4H140c-0.6,0-1.2,0-1.2-0.8
					c0-0.9,0.5-0.9,1.2-0.9h3V7.5z M141.7,4c-0.3,0-0.3,0.2-0.3,0.3v1.3c0,0.1,0,0.3,0.3,0.3h4.4c0.3,0,0.3-0.2,0.3-0.3V4.3
					c0-0.1,0-0.3-0.3-0.3H141.7z"/>
				<path class="st0" d="M152.2,14.3c0,0.6,0,1.2-0.8,1.2c-0.9,0-0.9-0.5-0.9-1.2V3.5c0-0.7,0.5-1.2,1.2-1.2h2
					c0.5,0,1.1,0.4,1.1,1.1c0,0.9-0.7,3.2-0.8,3.6c0.5,1.1,0.8,2.4,0.8,3.5c0,1.3-0.6,2.2-1.9,2.2c-0.1,0-0.5,0-0.8-0.1V14.3z
					 M152.2,11c0.1,0,0.4,0.1,0.6,0.1c0.4,0,0.5-0.2,0.5-0.7c0-0.3-0.1-1.1-0.6-2.6c-0.1-0.3-0.1-0.4-0.1-0.6c0-0.2,0-0.4,0.1-0.7
					c0.4-1.3,0.5-2,0.5-2.2c0-0.2-0.1-0.2-0.2-0.2h-0.5c-0.2,0-0.2,0-0.2,0.2V11z M156.7,11.8c-0.9,0-1.3-0.6-1.3-1V8.7
					c0-0.4,0.4-1,1.3-1h1.8V6.9h-1c-0.7,0-1.2,0-1.2-0.9c-0.2,0.1-0.5,0.3-0.8,0.3c-0.6,0-0.8-0.8-0.8-1c0-0.4,0.1-0.5,1.1-1.1
					c0.8-0.5,1.4-1,2.5-1.9c0.3-0.2,0.5-0.4,0.9-0.4c0.6,0,0.8,0.2,1.8,1c0.6,0.5,1.1,0.9,1.9,1.4c0.5,0.3,0.6,0.4,0.6,0.8
					c0,0.7-0.5,0.9-0.9,0.9c-0.2,0-0.3,0-0.4-0.1c0.1,0.9-0.5,0.9-1.2,0.9h-1v0.7h1.8c0.9,0,1.3,0.6,1.3,1v2.1c0,0.4-0.4,1-1.3,1
					h-1.4c1,1.1,2.1,1.8,2.3,1.9c0.6,0.3,0.6,0.5,0.6,0.8c0,0.3-0.3,0.9-0.8,0.9c-0.6,0-2.2-1.1-3.3-2.4c-1.1,1.5-3,2.4-3.6,2.4
					c-0.7,0-0.9-0.5-0.9-0.9c0-0.6,0.3-0.7,1.1-1c0.7-0.3,1.8-1,2.3-1.7H156.7z M158.5,9.2h-1.1c-0.1,0-0.3,0-0.3,0.2v0.7
					c0,0.2,0.2,0.2,0.3,0.2h1.1V9.2z M161.3,5.3c-0.6-0.4-0.8-0.5-1.6-1.2c-0.1-0.1-0.3-0.2-0.3-0.2c-0.1,0-0.4,0.3-0.4,0.3
					c-0.7,0.6-1.1,0.9-1.4,1.1H161.3z M160.2,10.3h1.1c0.1,0,0.3,0,0.3-0.2V9.4c0-0.2-0.2-0.2-0.3-0.2h-1.1V10.3z"/>
				<path class="st0" d="M170.2,12c-0.3,0.5-1.1,1.3-2.2,1.3c-1.9,0-3.1-2-3.1-4.1c0-3.6,3-6.1,6.5-6.1c2.9,0,5.9,1.7,5.9,5.5
					c0,4.7-4.3,5.6-5.5,5.6c-1,0-1-0.9-1-1c0-0.7,0.4-0.8,1.4-1c1.3-0.2,1.8-0.7,2-0.8c0.8-0.7,1.3-1.8,1.3-2.8
					c0-1.8-1.3-3.6-3.6-3.8C172,8.8,171,10.9,170.2,12z M166.7,9.2c0,1.4,0.7,2.2,1.3,2.2c0.7,0,1.1-1.3,1.3-1.7
					c0.2-0.5,0.8-2.2,0.7-4.6C167.5,5.6,166.7,7.9,166.7,9.2z"/>
			</g>
			<g>
				<path class="st0" d="M180.7,13c-0.2,0.3-0.4,0.5-0.9,0.5c-0.4,0-0.9-0.4-0.9-1c0-0.2,0.1-0.3,0.5-1.1c0.7-1.1,0.8-1.5,1.2-2.6
					c0.1-0.3,0.3-0.9,1-0.9c0.6,0,1,0.5,1,0.9C182.6,9.7,181.5,12,180.7,13z M184.5,3.6c0-0.8,0-1.6,1-1.6c1,0,1,0.7,1,1.6v1h3.7
					c0.7,0,1.6,0,1.6,1c0,1-0.8,1-1.6,1h-3.7v6.6c0,0.6,0,1.7-1.7,1.7c-0.6,0-1.5-0.1-2.1-0.4c-0.4-0.2-0.6-0.5-0.6-0.9
					c0-0.3,0.2-1,0.9-1c0.2,0,1.2,0.3,1.4,0.3c0.1,0,0.1,0,0.1-0.4V6.6h-3.8c-0.7,0-1.6,0-1.6-1c0-1,0.8-1,1.6-1h3.8V3.6z M191,13.4
					c-0.6,0-0.6-0.1-1.2-1.4c-0.5-1-1-1.9-1.3-2.4c-0.1-0.2-0.3-0.5-0.3-0.7c0-0.5,0.4-1,1-1c0.5,0,0.8,0.3,1.7,1.8
					c0.4,0.7,1.2,2.1,1.2,2.8C192.1,13,191.7,13.4,191,13.4z"/>
				<path class="st0" d="M203.1,7.4c0.7,0,1.4,0,1.4,1c0,1-0.7,1-1.4,1h-8.4c-0.7,0-1.4,0-1.4-1c0-1,0.7-1,1.4-1H203.1z"/>
				<path class="st0" d="M209.4,3.4c0.1-0.5,0.2-1,1-1c0.7,0,1,0.4,1,0.9c0,1.2-1.3,5.4-2.6,8.5c1.3-0.2,3-0.4,5.7-1
					c-0.3-0.5-0.7-1.2-1-1.7c-0.2-0.4-0.3-0.5-0.3-0.8c0-0.7,0.5-1,1-1c0.5,0,0.7,0.2,1.5,1.4c1.2,1.8,2.2,4.3,2.2,4.9
					c0,0.5-0.5,0.9-1.1,0.9c-0.5,0-0.7-0.3-0.8-0.5c-0.1-0.1-0.5-1.3-0.6-1.5c-2.5,0.7-8,1.6-9.6,1.6c-0.2,0-1.2,0-1.2-1.1
					c0-0.3,0.1-0.7,0.5-0.9c0.2-0.1,0.3-0.1,1.4-0.2C208.1,8.8,208.9,5.7,209.4,3.4z"/>
				<path class="st0" d="M222.4,13.4c0,0.8,0,1.6-1,1.6c-1.1,0-1.1-0.7-1.1-1.6V3.7c0-0.8,0-1.6,1-1.6c1.1,0,1.1,0.7,1.1,1.6v2.5
					c2,0.5,3.5,1,4.8,1.6c0.6,0.2,1.1,0.5,1.1,1.2c0,0.4-0.3,1-0.9,1c-0.2,0-0.6-0.2-1.2-0.4c-1.5-0.6-2.4-1-3.9-1.3V13.4z
					 M227.5,3.2c0.1,0.3,0.4,0.9,0.4,1.2c0,0.5-0.4,0.6-0.6,0.6c-0.4,0-0.5-0.2-0.7-0.6c-0.1-0.1-0.5-1-0.5-1.4
					c0-0.4,0.3-0.6,0.6-0.6C227.1,2.5,227.3,2.8,227.5,3.2z M229.7,3.8c0,0.3-0.2,0.6-0.6,0.6c-0.4,0-0.5-0.2-0.7-0.6
					c-0.2-0.3-0.5-1.1-0.5-1.4c0-0.3,0.2-0.6,0.6-0.6C229,1.9,229.7,3.3,229.7,3.8z"/>
				<path class="st0" d="M239.8,4.1c0.8,0,2.2,0,2.2,1.9c0,1.8-1.1,5.2-4.4,7.4c-2.1,1.3-4.2,1.6-4.5,1.6c-0.6,0-1-0.6-1-1.1
					c0-0.8,0.7-1,1.2-1.1c5.6-1.1,6.6-5.7,6.6-6.4c0-0.4-0.2-0.4-0.6-0.4h-4.4c-0.9,1.3-2.7,3-3.5,3c-0.6,0-1-0.6-1-1.1
					c0-0.5,0.2-0.7,0.8-1c2-1.4,2.8-3.3,3.2-4.2c0.2-0.4,0.4-0.8,1-0.8c0.2,0,1.1,0.1,1.1,0.9c0,0.1,0,0.3-0.4,1.2H239.8z"/>
				<path class="st0" d="M248.1,5.7C246.6,8,245,9,244.6,9c-0.7,0-1-0.6-1-1c0-0.4,0.3-0.6,0.6-0.9c1.9-1.5,2.3-2.4,3.4-4.7
					c0.1-0.2,0.3-0.6,0.9-0.6c0.3,0,1.1,0.3,1.1,1c0,0.2,0,0.3-0.4,1h4c1.2,0,1.8,0.6,1.8,1.6c0,0.1,0,2.7-1.7,5.2
					c1.1,0.9,1.2,1,1.2,1.5c0,0.5-0.4,1-1,1c-0.4,0-0.5-0.1-1.5-1c-1.8,1.8-5,3-5.8,3c-0.8,0-1-0.7-1-1.1c0-0.7,0.5-0.8,0.8-0.9
					c1.1-0.3,2.7-0.7,4.3-2.2c-0.3-0.2-1.7-1.2-2-1.4c-0.4-0.3-0.5-0.5-0.5-0.8c0-0.7,0.5-1,0.9-1c0.6,0,2,1,2.9,1.6
					c0.6-0.9,1.2-2.2,1.2-3.3c0-0.3-0.1-0.3-0.4-0.3H248.1z"/>
				<path class="st0" d="M266.4,7.4c0.7,0,1.4,0,1.4,1c0,1-0.7,1-1.4,1h-8.4c-0.7,0-1.4,0-1.4-1c0-1,0.7-1,1.4-1H266.4z"/>
			</g>
		</g>
		<g>
			<path class="st0" d="M85.6,56.5c0,0.8,0,3.1-3.1,3.1c-2.9,0-3.2-2-3.2-3.1V41.2c-0.3,0.1-0.6,0.2-1.1,0.2c-2.2,0-3.5-2-3.5-3.8
				c0-1.4,0.5-2.1,1.5-3.4c2.6-3.6,4.3-7.8,5.3-12.1c0.4-1.5,0.7-2.8,3.1-2.8c0.8,0,3.5,0.1,3.5,2.5c0,1.5-1.1,5.9-2.4,8.9V56.5
				 M89.9,43.7c-0.7,0-3.2,0-3.2-2.8c0-2.2,1.1-3,3.2-3h8.8v-2.6h-4.2c-3.5,0-5.3-1.1-5.3-5.1v-4.5c0-4,1.9-5.1,5.3-5.1h14.9
				c3.3,0,5.3,1.1,5.3,5.1v4.5c0,3.9-1.8,5.1-5.3,5.1h-4.4v2.6h8.7c0.7,0,3.3,0,3.3,2.8c0,2.3-1.2,3-3.3,3h-5.9c1.8,2.5,4.2,5,5.4,6
				c3.6,3,3.7,3.1,3.7,4.2c0,1.9-1.8,3.6-3.5,3.6c-1.1,0-2.1-0.7-3.7-2.4c-1-1.1-2.9-3.3-4.7-6.3v7.7c0,0.7,0,3.1-3,3.1
				c-2.3,0-3.3-0.9-3.3-3.1v-7.3c-1.1,1.5-2.6,3.3-5.1,5.7c-2.3,2.1-3.2,2.5-4.2,2.5c-1.7,0-3.3-1.6-3.3-3.5c0-1.4,1.1-2.2,2-2.8
				c2.6-1.8,4.8-3.2,8-7.4H89.9z M108.1,26.9c0-0.8-0.4-1.2-1.2-1.2h-10c-0.8,0-1.2,0.4-1.2,1.2v2c0,0.8,0.4,1.2,1.2,1.2h10
				c0.7,0,1.2-0.3,1.2-1.2V26.9z"/>
			<path class="st0" d="M152.1,48.3c1.9,2.8,3.7,3.7,7.2,5.2c1.1,0.5,2,1,2,2.7c0,1.6-1.1,3.4-3.1,3.4c-1.7,0-7.3-2.1-11.1-8.2
				c-3.5,5.9-9.5,8.2-11.2,8.2c-2,0-3.2-1.8-3.2-3.5c0-2,1.4-2.5,2.3-2.8c3.8-1.4,5.5-2.5,7-5h-1.9c-2.2,0-4.3,0-5.1-2
				c-0.2,2.7-1,5.1-5.1,5.1c-0.6,0-2.6,0-3.2-1.6v6.7c0,2.2-1,3.1-3.2,3.1c-2.9,0-2.9-2.4-2.9-3.1V25.5c0-4.5,0.9-5.2,5.5-5.2h3.1
				c3.5,0,5.4,0.3,5.4,4.4c0,1.2-0.2,2.3-0.2,2.5c4.1-2.2,4.8-2.6,8.2-6c1-0.9,2-1.9,4.5-1.9c2.8,0,3.7,0.9,4.6,1.9
				c3.2,3.3,4.1,3.9,8.1,6.3c1.1,0.7,1.5,1.5,1.5,2.6c0,1.8-1.3,3.5-3.2,3.5c-0.8,0-1.6-0.4-3.3-1.5c-0.4,1.6-1.9,1.6-2.6,1.6H150
				v1.6h4c4.6,0,5.5,0.9,5.5,5.3v2.7c0,4.5-1,5.2-5.5,5.2H152.1 M126.7,46.2c0.4-0.8,0.6-0.8,1.3-0.9c0.6-0.1,1.3-0.2,1.3-2.2
				c0-2.5-0.8-4.5-1.4-5.7c-0.8-1.5-0.9-1.8-0.9-2.1c0-1,2.2-7,2.2-8.4c0-0.1,0-0.6-0.8-0.6h-0.8c-0.6,0-0.8,0.3-0.8,0.8V46.2z
				 M144,33.6h-2.6c-1.1,0-1.9-0.2-2.5-1.3c-1.1,0.8-2.1,1.3-3.1,1.3c-0.9,0-2-0.6-2.8-1.9c-0.1,0.4-1,3-1,3.1
				c0,0.3,0.1,0.5,0.4,0.9c1.6,2.3,2.1,4.6,2.2,5.5v-0.9c0-4.3,0.7-5.3,5.4-5.3h3.8V33.6z M141.1,40.3c-0.5,0-0.8,0.3-0.8,0.8v1.4
				c0,0.5,0.3,0.8,0.8,0.8h2.7c0.2-1.5,0.2-2.2,0.2-2.9H141.1z M150.5,28.4c-0.6-0.6-2.5-2.8-2.7-2.9c-0.2-0.2-0.3-0.3-0.5-0.3
				c-0.3,0-0.4,0.1-0.6,0.4c-1,1.2-1.8,1.9-2.7,2.8H150.5z M150,40.3c0,0.7,0,1.4-0.1,2.9h3.2c0.5,0,0.8-0.3,0.8-0.8v-1.4
				c0-0.5-0.3-0.8-0.8-0.8H150z"/>
			<path class="st0" d="M195.1,25.7c4.7,0,4.9,2.9,4.9,4.2c0,2.1-1.8,14.2-12,21.9c-7.4,5.6-17.4,7.4-18.9,7.4
				c-2.7,0-3.6-2.2-3.6-3.7c0-2.3,1.1-2.6,4.5-3.4c6.7-1.5,14.8-4,19.5-13.1c1.2-2.4,2.2-5.4,2.2-6.1c0-0.7-0.4-0.7-1.5-0.7h-12.6
				c-1.6,2-7.5,8.7-10.8,8.7c-2.1,0-3.7-1.9-3.7-3.6c0-1.4,0.2-1.5,3.2-3.7c3-2.2,6.6-6.3,8.6-10.2c1.4-2.6,1.9-3.6,4.2-3.6
				c1.6,0,4,0.8,4,2.7c0,0.7-0.1,1.4-1.1,3.1H195.1"/>
			<path class="st0" d="M210.3,42.3c0,1.7-0.6,3.4-3.8,3.4c-2.4,0-3.9-0.8-3.9-3.4V24.2c0-1.7,0.5-3.4,3.8-3.4
				c2.4,0,3.9,0.8,3.9,3.4V42.3 M233.2,39.6c0,2.9,0,11.3-8.8,15.7c-5.5,2.8-11.6,3.4-14.5,3.4c-0.8,0-2.1,0-3.1-1.1
				c-0.8-0.8-1-1.9-1-2.7c0-2.8,2-3,4.6-3.3c7.5-0.7,10.3-2.3,12.2-4.1c2.4-2.3,2.7-4.9,2.7-7.7V23.6c0-2,0.9-3.4,3.8-3.4
				c2.2,0,3.9,0.7,3.9,3.4V39.6z"/>
			<path class="st0" d="M270.7,48.5c0.9,0,3.6,0,3.6,3.4c0,2.6-1.5,3.5-3.6,3.5h-33.4c-0.8,0-3.6,0-3.6-3.4c0-2.6,1.5-3.5,3.6-3.5
				H270.7 M267.2,23.5c0.8,0,3.7,0,3.7,3.4c0,2.7-1.6,3.5-3.7,3.5h-26.6c-0.8,0-3.6,0-3.6-3.4c0-2.9,1.9-3.5,3.6-3.5H267.2z"/>
			<path class="st0" d="M277.1,41.3c-0.9-3.1-1.1-3.7-2.4-6.7c-0.2-0.5-0.4-1-0.4-1.7c0-1.9,2.1-2.8,3.7-2.8c1.6,0,2.3,0.7,3.2,2.6
				c1,2,2.9,7.3,2.9,8.6c0,2-1.9,3-4.2,3C278,44.2,277.5,42.5,277.1,41.3 M306.8,32.2c0,0.7-1.2,8.8-6,15.4
				c-6.5,9.2-17.3,11.1-18.6,11.1c-2.5,0-3.2-2.4-3.2-3.5c0-1.9,1.2-2.2,4.1-3.1c4.9-1.5,13.3-4.3,16.2-17.3
				c0.7-3.3,0.8-3.6,1.1-4.1c0.7-1.3,2-1.5,2.6-1.5c0.3,0,0.7,0,1.2,0.2C305.6,29.7,306.8,30.5,306.8,32.2 M287.3,39.3
				c-0.4-2-0.9-3.9-1.7-6.1c-0.5-1.2-0.6-1.7-0.6-2.2c0-2,2.1-2.8,3.6-2.8c1.9,0,2.6,0.9,3.3,2.7c0.9,2.3,2.4,7.4,2.4,8.5
				c0,3-3.5,3-4.3,3C288,42.3,287.5,40.3,287.3,39.3"/>
			<path class="st0" d="M340.6,25.7c4.7,0,4.8,2.9,4.8,4.2c0,2.1-1.8,14.2-12,21.9c-7.4,5.6-17.4,7.4-18.9,7.4
				c-2.8,0-3.6-2.2-3.6-3.7c0-2.3,1.1-2.6,4.5-3.4c6.7-1.5,14.8-4,19.5-13.1c1.2-2.4,2.2-5.4,2.2-6.1c0-0.7-0.4-0.7-1.5-0.7H323
				c-1.6,2-7.5,8.7-10.8,8.7c-2.1,0-3.7-1.9-3.7-3.6c0-1.4,0.2-1.5,3.2-3.7c3-2.2,6.6-6.3,8.6-10.2c1.4-2.6,1.9-3.6,4.2-3.6
				c1.6,0,4,0.8,4,2.7c0,0.7-0.1,1.4-1.1,3.1H340.6"/>
		</g>
	</g>
</g>
<g>
	<g>
		<path class="st0" d="M49.2,61.2H22.1c-5.9,0-10.7-4.6-10.7-10.3V34.8c0-2.2,1.8-4,4.1-4c2.3,0,4.1,1.8,4.1,4V51
			c0,1.3,1.1,2.4,2.5,2.4h27.1c1.4,0,2.5-1.1,2.5-2.4V34.8c0-2.2,1.8-4,4.1-4c2.3,0,4.1,1.8,4.1,4V51C59.9,56.6,55.1,61.2,49.2,61.2
			"/>
		<path class="st0" d="M66.5,34.1c-1.1,0-2.1-0.4-2.9-1.2L39.4,9.6c-2.1-2-5.4-2-7.5,0L7.7,32.9c-1.6,1.5-4.2,1.5-5.8,0
			c-1.6-1.5-1.6-4.1,0-5.6L26.1,4C31.4-1,39.9-1,45.2,4l24.2,23.3c1.6,1.5,1.6,4,0,5.6C68.6,33.7,67.5,34.1,66.5,34.1"/>
	</g>
	<path class="st0" d="M40.3,45.2H31v-6.7h-7v-9h7v-6.7h9.3v6.7h7v9h-7V45.2z M33.3,42.9H38v-6.7h7v-4.4h-7V25h-4.7v6.7h-7v4.4h7
		V42.9z"/>
</g>
</svg>
